# xmcd
#
# Track frame offsets:
#	150
#	17247
#	55357
#	72495
#	98907
#	111652
#	126835
#	144357
#	159730
#	181875
#	198112
#	214137
#	229700
#	250262
#
# Disc length: 3685 seconds
#
# Revision: 3
# Processed by: cddbd v1.5.2PL0 Copyright (c) Steve Scherf et al.
# Submitted via: EasyCDDAExtractor 15.3.0.1
#
DISCID=cf0e630e
DTITLE=Ana Gabriel - ...En La Plaza De Toros Mexico - CD 2
DYEAR=1998
DGENRE=Latin
TTITLE0=Con Un Mismo Corazon
TTITLE1=Popurri Ranchero (Ahora, No Entiendo, Sin Problemas, Es Demasiado Tard
TTITLE1=e)
TTITLE2=A Pesar De Todos
TTITLE3=Mexico Lindo Y Querido, Cielito Lindo
TTITLE4=Mi Gusto Es
TTITLE5=En La Oscuridad
TTITLE6=Cosas Del Amor (Duo Con Analy)
TTITLE7=No Sabes
TTITLE8=Es El Amor Quien Llega, Amor
TTITLE9=Quien Como Tu
TTITLE10=Simplemente Amigos
TTITLE11=Y Aqui Estoy
TTITLE12=Luna
TTITLE13=Hice Bien Quererte (Lambada)
EXTD=\nYEAR: 1998  ID3G:  81
EXTT0=
EXTT1=
EXTT2=
EXTT3=
EXTT4=
EXTT5=
EXTT6=
EXTT7=
EXTT8=
EXTT9=
EXTT10=
EXTT11=
EXTT12=
EXTT13=
PLAYORDER=
